G75*
%MOIN*%
%OFA0B0*%
%FSLAX25Y25*%
%IPPOS*%
%LPD*%
%AMOC8*
5,1,8,0,0,1.08239X$1,22.5*
%
%ADD10C,0.01969*%
%ADD11C,0.00472*%
%ADD12C,0.00400*%
%ADD13C,0.00787*%
%ADD14C,0.00500*%
%ADD15C,0.00600*%
%ADD16C,0.03000*%
%ADD17R,0.02000X0.03000*%
%ADD18R,0.04000X0.03000*%
D10*
X0014328Y0038859D03*
X0126461Y0018859D03*
X0189453Y0018859D03*
X0252445Y0018859D03*
X0315437Y0018859D03*
X0378430Y0018859D03*
X0441422Y0018859D03*
X0360785Y0082166D03*
X0297793Y0082166D03*
X0234800Y0082166D03*
X0171808Y0082166D03*
X0108816Y0082166D03*
X0045824Y0082166D03*
D11*
X0055434Y0012127D02*
X0021969Y0012127D01*
X0021969Y0015155D01*
X0055434Y0015155D02*
X0055434Y0012127D01*
X0085355Y0012127D02*
X0085355Y0015155D01*
X0085355Y0012127D02*
X0118820Y0012127D01*
X0118820Y0015155D01*
X0148347Y0015155D02*
X0148347Y0012127D01*
X0181812Y0012127D01*
X0181812Y0015155D01*
X0211339Y0015155D02*
X0211339Y0012127D01*
X0244804Y0012127D01*
X0244804Y0015155D01*
X0274331Y0015155D02*
X0274331Y0012127D01*
X0307796Y0012127D01*
X0307796Y0015155D01*
X0337324Y0015155D02*
X0337324Y0012127D01*
X0370788Y0012127D01*
X0370788Y0015155D01*
X0400316Y0015155D02*
X0400316Y0012127D01*
X0433780Y0012127D01*
X0433780Y0015155D01*
X0433780Y0042563D02*
X0433780Y0045591D01*
X0400316Y0045591D01*
X0400316Y0042563D01*
X0370788Y0042563D02*
X0370788Y0045591D01*
X0337324Y0045591D01*
X0337324Y0042563D01*
X0307796Y0042563D02*
X0307796Y0045591D01*
X0274331Y0045591D01*
X0274331Y0042563D01*
X0244804Y0042563D02*
X0244804Y0045591D01*
X0211339Y0045591D01*
X0211339Y0042563D01*
X0181812Y0042563D02*
X0181812Y0045591D01*
X0148347Y0045591D01*
X0148347Y0042563D01*
X0118820Y0042563D02*
X0118820Y0045591D01*
X0085355Y0045591D01*
X0085355Y0042563D01*
X0055434Y0042563D02*
X0055434Y0045591D01*
X0021969Y0045591D01*
X0021969Y0042563D01*
X0053465Y0055434D02*
X0086930Y0055434D01*
X0086930Y0058462D01*
X0116457Y0058462D02*
X0116457Y0055434D01*
X0149922Y0055434D01*
X0149922Y0058462D01*
X0179450Y0058462D02*
X0179450Y0055434D01*
X0212914Y0055434D01*
X0212914Y0058462D01*
X0242442Y0058462D02*
X0242442Y0055434D01*
X0275906Y0055434D01*
X0275906Y0058462D01*
X0305434Y0058462D02*
X0305434Y0055434D01*
X0338898Y0055434D01*
X0338898Y0058462D01*
X0368426Y0058462D02*
X0368426Y0055434D01*
X0401891Y0055434D01*
X0401891Y0058462D01*
X0401891Y0085870D02*
X0401891Y0088898D01*
X0368426Y0088898D01*
X0368426Y0085870D01*
X0338898Y0085870D02*
X0338898Y0088898D01*
X0305434Y0088898D01*
X0305434Y0085870D01*
X0275906Y0085870D02*
X0275906Y0088898D01*
X0242442Y0088898D01*
X0242442Y0085870D01*
X0212914Y0085870D02*
X0212914Y0088898D01*
X0179450Y0088898D01*
X0179450Y0085870D01*
X0149922Y0085870D02*
X0149922Y0088898D01*
X0116457Y0088898D01*
X0116457Y0085870D01*
X0086930Y0085870D02*
X0086930Y0088898D01*
X0053465Y0088898D01*
X0053465Y0085870D01*
X0053465Y0058462D02*
X0053465Y0055434D01*
D12*
X0041027Y0052891D02*
X0041027Y0048291D01*
X0042304Y0048291D02*
X0039749Y0048291D01*
X0037654Y0049569D02*
X0037654Y0052891D01*
X0039749Y0051869D02*
X0041027Y0052891D01*
X0037655Y0049569D02*
X0037653Y0049499D01*
X0037647Y0049428D01*
X0037638Y0049359D01*
X0037624Y0049290D01*
X0037607Y0049221D01*
X0037586Y0049154D01*
X0037561Y0049088D01*
X0037533Y0049024D01*
X0037501Y0048961D01*
X0037466Y0048900D01*
X0037427Y0048841D01*
X0037386Y0048784D01*
X0037341Y0048730D01*
X0037293Y0048678D01*
X0037243Y0048629D01*
X0037189Y0048582D01*
X0037134Y0048539D01*
X0037076Y0048499D01*
X0037016Y0048462D01*
X0036954Y0048429D01*
X0036890Y0048399D01*
X0036825Y0048372D01*
X0036759Y0048349D01*
X0036691Y0048330D01*
X0036622Y0048315D01*
X0036553Y0048303D01*
X0036483Y0048295D01*
X0036412Y0048291D01*
X0036342Y0048291D01*
X0036271Y0048295D01*
X0036201Y0048303D01*
X0036132Y0048315D01*
X0036063Y0048330D01*
X0035995Y0048349D01*
X0035929Y0048372D01*
X0035864Y0048399D01*
X0035800Y0048429D01*
X0035738Y0048462D01*
X0035678Y0048499D01*
X0035620Y0048539D01*
X0035565Y0048582D01*
X0035511Y0048629D01*
X0035461Y0048678D01*
X0035413Y0048730D01*
X0035368Y0048784D01*
X0035327Y0048841D01*
X0035288Y0048900D01*
X0035253Y0048961D01*
X0035221Y0049024D01*
X0035193Y0049088D01*
X0035168Y0049154D01*
X0035147Y0049221D01*
X0035130Y0049290D01*
X0035116Y0049359D01*
X0035107Y0049428D01*
X0035101Y0049499D01*
X0035099Y0049569D01*
X0035099Y0052891D01*
X0071245Y0091598D02*
X0073800Y0091598D01*
X0071245Y0091598D02*
X0073417Y0094154D01*
X0072650Y0096198D02*
X0072576Y0096196D01*
X0072502Y0096191D01*
X0072428Y0096181D01*
X0072355Y0096168D01*
X0072282Y0096152D01*
X0072211Y0096131D01*
X0072141Y0096107D01*
X0072072Y0096080D01*
X0072004Y0096049D01*
X0071938Y0096015D01*
X0071874Y0095978D01*
X0071812Y0095937D01*
X0071752Y0095893D01*
X0071694Y0095847D01*
X0071638Y0095797D01*
X0071585Y0095745D01*
X0071535Y0095690D01*
X0071488Y0095633D01*
X0071444Y0095573D01*
X0071402Y0095511D01*
X0071364Y0095448D01*
X0071329Y0095382D01*
X0071298Y0095315D01*
X0071270Y0095246D01*
X0071245Y0095176D01*
X0073417Y0094154D02*
X0073464Y0094201D01*
X0073508Y0094251D01*
X0073550Y0094303D01*
X0073589Y0094357D01*
X0073624Y0094413D01*
X0073657Y0094471D01*
X0073687Y0094531D01*
X0073713Y0094592D01*
X0073736Y0094655D01*
X0073755Y0094719D01*
X0073771Y0094783D01*
X0073784Y0094849D01*
X0073793Y0094915D01*
X0073798Y0094981D01*
X0073800Y0095048D01*
X0073798Y0095115D01*
X0073792Y0095182D01*
X0073783Y0095248D01*
X0073769Y0095313D01*
X0073752Y0095378D01*
X0073731Y0095441D01*
X0073706Y0095503D01*
X0073678Y0095564D01*
X0073646Y0095623D01*
X0073611Y0095680D01*
X0073572Y0095735D01*
X0073531Y0095787D01*
X0073486Y0095837D01*
X0073439Y0095884D01*
X0073389Y0095929D01*
X0073337Y0095970D01*
X0073282Y0096009D01*
X0073225Y0096044D01*
X0073166Y0096076D01*
X0073105Y0096104D01*
X0073043Y0096129D01*
X0072980Y0096150D01*
X0072915Y0096167D01*
X0072850Y0096181D01*
X0072784Y0096190D01*
X0072717Y0096196D01*
X0072650Y0096198D01*
X0069150Y0096198D02*
X0069150Y0092876D01*
X0069151Y0092876D02*
X0069149Y0092806D01*
X0069143Y0092735D01*
X0069134Y0092666D01*
X0069120Y0092597D01*
X0069103Y0092528D01*
X0069082Y0092461D01*
X0069057Y0092395D01*
X0069029Y0092331D01*
X0068997Y0092268D01*
X0068962Y0092207D01*
X0068923Y0092148D01*
X0068882Y0092091D01*
X0068837Y0092037D01*
X0068789Y0091985D01*
X0068739Y0091936D01*
X0068685Y0091889D01*
X0068630Y0091846D01*
X0068572Y0091806D01*
X0068512Y0091769D01*
X0068450Y0091736D01*
X0068386Y0091706D01*
X0068321Y0091679D01*
X0068255Y0091656D01*
X0068187Y0091637D01*
X0068118Y0091622D01*
X0068049Y0091610D01*
X0067979Y0091602D01*
X0067908Y0091598D01*
X0067838Y0091598D01*
X0067767Y0091602D01*
X0067697Y0091610D01*
X0067628Y0091622D01*
X0067559Y0091637D01*
X0067491Y0091656D01*
X0067425Y0091679D01*
X0067360Y0091706D01*
X0067296Y0091736D01*
X0067234Y0091769D01*
X0067174Y0091806D01*
X0067116Y0091846D01*
X0067061Y0091889D01*
X0067007Y0091936D01*
X0066957Y0091985D01*
X0066909Y0092037D01*
X0066864Y0092091D01*
X0066823Y0092148D01*
X0066784Y0092207D01*
X0066749Y0092268D01*
X0066717Y0092331D01*
X0066689Y0092395D01*
X0066664Y0092461D01*
X0066643Y0092528D01*
X0066626Y0092597D01*
X0066612Y0092666D01*
X0066603Y0092735D01*
X0066597Y0092806D01*
X0066595Y0092876D01*
X0066595Y0096198D01*
X0129587Y0096198D02*
X0129587Y0092876D01*
X0129589Y0092806D01*
X0129595Y0092735D01*
X0129604Y0092666D01*
X0129618Y0092597D01*
X0129635Y0092528D01*
X0129656Y0092461D01*
X0129681Y0092395D01*
X0129709Y0092331D01*
X0129741Y0092268D01*
X0129776Y0092207D01*
X0129815Y0092148D01*
X0129856Y0092091D01*
X0129901Y0092037D01*
X0129949Y0091985D01*
X0129999Y0091936D01*
X0130053Y0091889D01*
X0130108Y0091846D01*
X0130166Y0091806D01*
X0130226Y0091769D01*
X0130288Y0091736D01*
X0130352Y0091706D01*
X0130417Y0091679D01*
X0130483Y0091656D01*
X0130551Y0091637D01*
X0130620Y0091622D01*
X0130689Y0091610D01*
X0130759Y0091602D01*
X0130830Y0091598D01*
X0130900Y0091598D01*
X0130971Y0091602D01*
X0131041Y0091610D01*
X0131110Y0091622D01*
X0131179Y0091637D01*
X0131247Y0091656D01*
X0131313Y0091679D01*
X0131378Y0091706D01*
X0131442Y0091736D01*
X0131504Y0091769D01*
X0131564Y0091806D01*
X0131622Y0091846D01*
X0131677Y0091889D01*
X0131731Y0091936D01*
X0131781Y0091985D01*
X0131829Y0092037D01*
X0131874Y0092091D01*
X0131915Y0092148D01*
X0131954Y0092207D01*
X0131989Y0092268D01*
X0132021Y0092331D01*
X0132049Y0092395D01*
X0132074Y0092461D01*
X0132095Y0092528D01*
X0132112Y0092597D01*
X0132126Y0092666D01*
X0132135Y0092735D01*
X0132141Y0092806D01*
X0132143Y0092876D01*
X0132143Y0096198D01*
X0135259Y0096198D02*
X0134237Y0092621D01*
X0136793Y0092621D01*
X0136026Y0093643D02*
X0136026Y0091598D01*
X0183100Y0113751D02*
X0184122Y0113751D01*
X0183100Y0113751D02*
X0183038Y0113753D01*
X0182977Y0113758D01*
X0182916Y0113768D01*
X0182855Y0113781D01*
X0182796Y0113797D01*
X0182738Y0113817D01*
X0182681Y0113841D01*
X0182625Y0113868D01*
X0182571Y0113898D01*
X0182519Y0113932D01*
X0182470Y0113968D01*
X0182422Y0114008D01*
X0182377Y0114050D01*
X0182335Y0114095D01*
X0182295Y0114143D01*
X0182259Y0114192D01*
X0182225Y0114244D01*
X0182195Y0114298D01*
X0182168Y0114354D01*
X0182144Y0114411D01*
X0182124Y0114469D01*
X0182108Y0114528D01*
X0182095Y0114589D01*
X0182085Y0114650D01*
X0182080Y0114711D01*
X0182078Y0114773D01*
X0182078Y0117329D01*
X0182080Y0117391D01*
X0182085Y0117452D01*
X0182095Y0117513D01*
X0182108Y0117574D01*
X0182124Y0117633D01*
X0182144Y0117691D01*
X0182168Y0117748D01*
X0182195Y0117804D01*
X0182225Y0117858D01*
X0182259Y0117910D01*
X0182295Y0117959D01*
X0182335Y0118007D01*
X0182377Y0118052D01*
X0182422Y0118094D01*
X0182470Y0118133D01*
X0182519Y0118170D01*
X0182571Y0118204D01*
X0182625Y0118234D01*
X0182681Y0118261D01*
X0182738Y0118285D01*
X0182796Y0118305D01*
X0182855Y0118321D01*
X0182916Y0118334D01*
X0182977Y0118344D01*
X0183038Y0118349D01*
X0183100Y0118351D01*
X0184122Y0118351D01*
X0188013Y0116307D02*
X0188060Y0116354D01*
X0188104Y0116404D01*
X0188146Y0116456D01*
X0188185Y0116510D01*
X0188220Y0116566D01*
X0188253Y0116624D01*
X0188283Y0116684D01*
X0188309Y0116745D01*
X0188332Y0116808D01*
X0188351Y0116872D01*
X0188367Y0116936D01*
X0188380Y0117002D01*
X0188389Y0117068D01*
X0188394Y0117134D01*
X0188396Y0117201D01*
X0188013Y0116306D02*
X0185841Y0113751D01*
X0188396Y0113751D01*
X0185841Y0117328D02*
X0185866Y0117398D01*
X0185894Y0117467D01*
X0185925Y0117534D01*
X0185960Y0117600D01*
X0185998Y0117663D01*
X0186040Y0117725D01*
X0186084Y0117785D01*
X0186131Y0117842D01*
X0186181Y0117897D01*
X0186234Y0117949D01*
X0186290Y0117999D01*
X0186348Y0118045D01*
X0186408Y0118089D01*
X0186470Y0118130D01*
X0186534Y0118167D01*
X0186600Y0118201D01*
X0186668Y0118232D01*
X0186737Y0118259D01*
X0186807Y0118283D01*
X0186878Y0118304D01*
X0186951Y0118320D01*
X0187024Y0118333D01*
X0187098Y0118343D01*
X0187172Y0118348D01*
X0187246Y0118350D01*
X0187246Y0118351D02*
X0187313Y0118349D01*
X0187380Y0118343D01*
X0187446Y0118334D01*
X0187511Y0118320D01*
X0187576Y0118303D01*
X0187639Y0118282D01*
X0187701Y0118257D01*
X0187762Y0118229D01*
X0187821Y0118197D01*
X0187878Y0118162D01*
X0187933Y0118123D01*
X0187985Y0118082D01*
X0188035Y0118037D01*
X0188082Y0117990D01*
X0188127Y0117940D01*
X0188168Y0117888D01*
X0188207Y0117833D01*
X0188242Y0117776D01*
X0188274Y0117717D01*
X0188302Y0117656D01*
X0188327Y0117594D01*
X0188348Y0117531D01*
X0188365Y0117466D01*
X0188379Y0117401D01*
X0188388Y0117335D01*
X0188394Y0117268D01*
X0188396Y0117201D01*
X0188396Y0133751D02*
X0185841Y0133751D01*
X0187119Y0133751D02*
X0187119Y0138351D01*
X0185841Y0137329D01*
X0184122Y0138351D02*
X0183100Y0138351D01*
X0183038Y0138349D01*
X0182977Y0138344D01*
X0182916Y0138334D01*
X0182855Y0138321D01*
X0182796Y0138305D01*
X0182738Y0138285D01*
X0182681Y0138261D01*
X0182625Y0138234D01*
X0182571Y0138204D01*
X0182519Y0138170D01*
X0182470Y0138133D01*
X0182422Y0138094D01*
X0182377Y0138052D01*
X0182335Y0138007D01*
X0182295Y0137959D01*
X0182259Y0137910D01*
X0182225Y0137858D01*
X0182195Y0137804D01*
X0182168Y0137748D01*
X0182144Y0137691D01*
X0182124Y0137633D01*
X0182108Y0137574D01*
X0182095Y0137513D01*
X0182085Y0137452D01*
X0182080Y0137391D01*
X0182078Y0137329D01*
X0182078Y0134773D01*
X0182080Y0134711D01*
X0182085Y0134650D01*
X0182095Y0134589D01*
X0182108Y0134528D01*
X0182124Y0134469D01*
X0182144Y0134411D01*
X0182168Y0134354D01*
X0182195Y0134298D01*
X0182225Y0134244D01*
X0182259Y0134192D01*
X0182295Y0134143D01*
X0182335Y0134095D01*
X0182377Y0134050D01*
X0182422Y0134008D01*
X0182470Y0133968D01*
X0182519Y0133932D01*
X0182571Y0133898D01*
X0182625Y0133868D01*
X0182681Y0133841D01*
X0182738Y0133817D01*
X0182796Y0133797D01*
X0182855Y0133781D01*
X0182916Y0133768D01*
X0182977Y0133758D01*
X0183038Y0133753D01*
X0183100Y0133751D01*
X0184122Y0133751D01*
X0132182Y0130947D02*
X0129626Y0130947D01*
X0130649Y0134525D01*
X0131415Y0131970D02*
X0131415Y0129925D01*
X0127682Y0129925D02*
X0125126Y0129925D01*
X0126404Y0129925D02*
X0126404Y0134525D01*
X0125126Y0133503D01*
X0123032Y0134525D02*
X0123032Y0131203D01*
X0123030Y0131133D01*
X0123024Y0131062D01*
X0123015Y0130993D01*
X0123001Y0130924D01*
X0122984Y0130855D01*
X0122963Y0130788D01*
X0122938Y0130722D01*
X0122910Y0130658D01*
X0122878Y0130595D01*
X0122843Y0130534D01*
X0122804Y0130475D01*
X0122763Y0130418D01*
X0122718Y0130364D01*
X0122670Y0130312D01*
X0122620Y0130263D01*
X0122566Y0130216D01*
X0122511Y0130173D01*
X0122453Y0130133D01*
X0122393Y0130096D01*
X0122331Y0130063D01*
X0122267Y0130033D01*
X0122202Y0130006D01*
X0122136Y0129983D01*
X0122068Y0129964D01*
X0121999Y0129949D01*
X0121930Y0129937D01*
X0121860Y0129929D01*
X0121789Y0129925D01*
X0121719Y0129925D01*
X0121648Y0129929D01*
X0121578Y0129937D01*
X0121509Y0129949D01*
X0121440Y0129964D01*
X0121372Y0129983D01*
X0121306Y0130006D01*
X0121241Y0130033D01*
X0121177Y0130063D01*
X0121115Y0130096D01*
X0121055Y0130133D01*
X0120997Y0130173D01*
X0120942Y0130216D01*
X0120888Y0130263D01*
X0120838Y0130312D01*
X0120790Y0130364D01*
X0120745Y0130418D01*
X0120704Y0130475D01*
X0120665Y0130534D01*
X0120630Y0130595D01*
X0120598Y0130658D01*
X0120570Y0130722D01*
X0120545Y0130788D01*
X0120524Y0130855D01*
X0120507Y0130924D01*
X0120493Y0130993D01*
X0120484Y0131062D01*
X0120478Y0131133D01*
X0120476Y0131203D01*
X0120476Y0134525D01*
X0192579Y0096198D02*
X0192579Y0092876D01*
X0192581Y0092806D01*
X0192587Y0092735D01*
X0192596Y0092666D01*
X0192610Y0092597D01*
X0192627Y0092528D01*
X0192648Y0092461D01*
X0192673Y0092395D01*
X0192701Y0092331D01*
X0192733Y0092268D01*
X0192768Y0092207D01*
X0192807Y0092148D01*
X0192848Y0092091D01*
X0192893Y0092037D01*
X0192941Y0091985D01*
X0192991Y0091936D01*
X0193045Y0091889D01*
X0193100Y0091846D01*
X0193158Y0091806D01*
X0193218Y0091769D01*
X0193280Y0091736D01*
X0193344Y0091706D01*
X0193409Y0091679D01*
X0193475Y0091656D01*
X0193543Y0091637D01*
X0193612Y0091622D01*
X0193681Y0091610D01*
X0193751Y0091602D01*
X0193822Y0091598D01*
X0193892Y0091598D01*
X0193963Y0091602D01*
X0194033Y0091610D01*
X0194102Y0091622D01*
X0194171Y0091637D01*
X0194239Y0091656D01*
X0194305Y0091679D01*
X0194370Y0091706D01*
X0194434Y0091736D01*
X0194496Y0091769D01*
X0194556Y0091806D01*
X0194614Y0091846D01*
X0194669Y0091889D01*
X0194723Y0091936D01*
X0194773Y0091985D01*
X0194821Y0092037D01*
X0194866Y0092091D01*
X0194907Y0092148D01*
X0194946Y0092207D01*
X0194981Y0092268D01*
X0195013Y0092331D01*
X0195041Y0092395D01*
X0195066Y0092461D01*
X0195087Y0092528D01*
X0195104Y0092597D01*
X0195118Y0092666D01*
X0195127Y0092735D01*
X0195133Y0092806D01*
X0195135Y0092876D01*
X0195135Y0096198D01*
X0197229Y0094154D02*
X0197229Y0092876D01*
X0197231Y0092806D01*
X0197237Y0092735D01*
X0197246Y0092666D01*
X0197260Y0092597D01*
X0197277Y0092528D01*
X0197298Y0092461D01*
X0197323Y0092395D01*
X0197351Y0092331D01*
X0197383Y0092268D01*
X0197418Y0092207D01*
X0197457Y0092148D01*
X0197498Y0092091D01*
X0197543Y0092037D01*
X0197591Y0091985D01*
X0197641Y0091936D01*
X0197695Y0091889D01*
X0197750Y0091846D01*
X0197808Y0091806D01*
X0197868Y0091769D01*
X0197930Y0091736D01*
X0197994Y0091706D01*
X0198059Y0091679D01*
X0198125Y0091656D01*
X0198193Y0091637D01*
X0198262Y0091622D01*
X0198331Y0091610D01*
X0198401Y0091602D01*
X0198472Y0091598D01*
X0198542Y0091598D01*
X0198613Y0091602D01*
X0198683Y0091610D01*
X0198752Y0091622D01*
X0198821Y0091637D01*
X0198889Y0091656D01*
X0198955Y0091679D01*
X0199020Y0091706D01*
X0199084Y0091736D01*
X0199146Y0091769D01*
X0199206Y0091806D01*
X0199264Y0091846D01*
X0199319Y0091889D01*
X0199373Y0091936D01*
X0199423Y0091985D01*
X0199471Y0092037D01*
X0199516Y0092091D01*
X0199557Y0092148D01*
X0199596Y0092207D01*
X0199631Y0092268D01*
X0199663Y0092331D01*
X0199691Y0092395D01*
X0199716Y0092461D01*
X0199737Y0092528D01*
X0199754Y0092597D01*
X0199768Y0092666D01*
X0199777Y0092735D01*
X0199783Y0092806D01*
X0199785Y0092876D01*
X0199785Y0093132D01*
X0199784Y0093132D02*
X0199782Y0093194D01*
X0199777Y0093255D01*
X0199767Y0093316D01*
X0199754Y0093377D01*
X0199738Y0093436D01*
X0199718Y0093494D01*
X0199694Y0093551D01*
X0199667Y0093607D01*
X0199637Y0093661D01*
X0199603Y0093713D01*
X0199567Y0093762D01*
X0199527Y0093810D01*
X0199485Y0093855D01*
X0199440Y0093897D01*
X0199392Y0093937D01*
X0199343Y0093973D01*
X0199291Y0094007D01*
X0199237Y0094037D01*
X0199181Y0094064D01*
X0199124Y0094088D01*
X0199066Y0094108D01*
X0199007Y0094124D01*
X0198946Y0094137D01*
X0198885Y0094147D01*
X0198824Y0094152D01*
X0198762Y0094154D01*
X0197229Y0094154D01*
X0197230Y0094154D02*
X0197232Y0094243D01*
X0197238Y0094332D01*
X0197247Y0094421D01*
X0197261Y0094509D01*
X0197278Y0094596D01*
X0197300Y0094683D01*
X0197325Y0094769D01*
X0197353Y0094853D01*
X0197386Y0094936D01*
X0197422Y0095018D01*
X0197461Y0095098D01*
X0197504Y0095176D01*
X0197550Y0095252D01*
X0197600Y0095326D01*
X0197652Y0095398D01*
X0197708Y0095468D01*
X0197767Y0095535D01*
X0197829Y0095599D01*
X0197893Y0095661D01*
X0197960Y0095720D01*
X0198030Y0095776D01*
X0198102Y0095828D01*
X0198176Y0095878D01*
X0198252Y0095924D01*
X0198330Y0095967D01*
X0198410Y0096006D01*
X0198492Y0096042D01*
X0198575Y0096075D01*
X0198659Y0096103D01*
X0198745Y0096128D01*
X0198832Y0096150D01*
X0198919Y0096167D01*
X0199007Y0096181D01*
X0199096Y0096190D01*
X0199185Y0096196D01*
X0199274Y0096198D01*
X0255571Y0096198D02*
X0255571Y0092876D01*
X0255573Y0092806D01*
X0255579Y0092735D01*
X0255588Y0092666D01*
X0255602Y0092597D01*
X0255619Y0092528D01*
X0255640Y0092461D01*
X0255665Y0092395D01*
X0255693Y0092331D01*
X0255725Y0092268D01*
X0255760Y0092207D01*
X0255799Y0092148D01*
X0255840Y0092091D01*
X0255885Y0092037D01*
X0255933Y0091985D01*
X0255983Y0091936D01*
X0256037Y0091889D01*
X0256092Y0091846D01*
X0256150Y0091806D01*
X0256210Y0091769D01*
X0256272Y0091736D01*
X0256336Y0091706D01*
X0256401Y0091679D01*
X0256467Y0091656D01*
X0256535Y0091637D01*
X0256604Y0091622D01*
X0256673Y0091610D01*
X0256743Y0091602D01*
X0256814Y0091598D01*
X0256884Y0091598D01*
X0256955Y0091602D01*
X0257025Y0091610D01*
X0257094Y0091622D01*
X0257163Y0091637D01*
X0257231Y0091656D01*
X0257297Y0091679D01*
X0257362Y0091706D01*
X0257426Y0091736D01*
X0257488Y0091769D01*
X0257548Y0091806D01*
X0257606Y0091846D01*
X0257661Y0091889D01*
X0257715Y0091936D01*
X0257765Y0091985D01*
X0257813Y0092037D01*
X0257858Y0092091D01*
X0257899Y0092148D01*
X0257938Y0092207D01*
X0257973Y0092268D01*
X0258005Y0092331D01*
X0258033Y0092395D01*
X0258058Y0092461D01*
X0258079Y0092528D01*
X0258096Y0092597D01*
X0258110Y0092666D01*
X0258119Y0092735D01*
X0258125Y0092806D01*
X0258127Y0092876D01*
X0258127Y0096198D01*
X0260477Y0095176D02*
X0260479Y0095113D01*
X0260485Y0095050D01*
X0260494Y0094988D01*
X0260508Y0094927D01*
X0260525Y0094866D01*
X0260546Y0094807D01*
X0260571Y0094749D01*
X0260599Y0094692D01*
X0260630Y0094638D01*
X0260665Y0094586D01*
X0260703Y0094535D01*
X0260744Y0094487D01*
X0260788Y0094442D01*
X0260834Y0094400D01*
X0260883Y0094360D01*
X0260934Y0094324D01*
X0260988Y0094291D01*
X0261043Y0094261D01*
X0261101Y0094235D01*
X0261159Y0094212D01*
X0261219Y0094193D01*
X0261280Y0094178D01*
X0261342Y0094166D01*
X0261405Y0094158D01*
X0261468Y0094154D01*
X0261530Y0094154D01*
X0261593Y0094158D01*
X0261656Y0094166D01*
X0261718Y0094178D01*
X0261779Y0094193D01*
X0261839Y0094212D01*
X0261897Y0094235D01*
X0261955Y0094261D01*
X0262010Y0094291D01*
X0262064Y0094324D01*
X0262115Y0094360D01*
X0262164Y0094400D01*
X0262210Y0094442D01*
X0262254Y0094487D01*
X0262295Y0094535D01*
X0262333Y0094586D01*
X0262368Y0094638D01*
X0262399Y0094692D01*
X0262427Y0094749D01*
X0262452Y0094807D01*
X0262473Y0094866D01*
X0262490Y0094927D01*
X0262504Y0094988D01*
X0262513Y0095050D01*
X0262519Y0095113D01*
X0262521Y0095176D01*
X0262519Y0095239D01*
X0262513Y0095302D01*
X0262504Y0095364D01*
X0262490Y0095425D01*
X0262473Y0095486D01*
X0262452Y0095545D01*
X0262427Y0095603D01*
X0262399Y0095660D01*
X0262368Y0095714D01*
X0262333Y0095766D01*
X0262295Y0095817D01*
X0262254Y0095865D01*
X0262210Y0095910D01*
X0262164Y0095952D01*
X0262115Y0095992D01*
X0262064Y0096028D01*
X0262010Y0096061D01*
X0261955Y0096091D01*
X0261897Y0096117D01*
X0261839Y0096140D01*
X0261779Y0096159D01*
X0261718Y0096174D01*
X0261656Y0096186D01*
X0261593Y0096194D01*
X0261530Y0096198D01*
X0261468Y0096198D01*
X0261405Y0096194D01*
X0261342Y0096186D01*
X0261280Y0096174D01*
X0261219Y0096159D01*
X0261159Y0096140D01*
X0261101Y0096117D01*
X0261043Y0096091D01*
X0260988Y0096061D01*
X0260934Y0096028D01*
X0260883Y0095992D01*
X0260834Y0095952D01*
X0260788Y0095910D01*
X0260744Y0095865D01*
X0260703Y0095817D01*
X0260665Y0095766D01*
X0260630Y0095714D01*
X0260599Y0095660D01*
X0260571Y0095603D01*
X0260546Y0095545D01*
X0260525Y0095486D01*
X0260508Y0095425D01*
X0260494Y0095364D01*
X0260485Y0095302D01*
X0260479Y0095239D01*
X0260477Y0095176D01*
X0260221Y0092876D02*
X0260223Y0092806D01*
X0260229Y0092735D01*
X0260238Y0092666D01*
X0260252Y0092597D01*
X0260269Y0092528D01*
X0260290Y0092461D01*
X0260315Y0092395D01*
X0260343Y0092331D01*
X0260375Y0092268D01*
X0260410Y0092207D01*
X0260449Y0092148D01*
X0260490Y0092091D01*
X0260535Y0092037D01*
X0260583Y0091985D01*
X0260633Y0091936D01*
X0260687Y0091889D01*
X0260742Y0091846D01*
X0260800Y0091806D01*
X0260860Y0091769D01*
X0260922Y0091736D01*
X0260986Y0091706D01*
X0261051Y0091679D01*
X0261117Y0091656D01*
X0261185Y0091637D01*
X0261254Y0091622D01*
X0261323Y0091610D01*
X0261393Y0091602D01*
X0261464Y0091598D01*
X0261534Y0091598D01*
X0261605Y0091602D01*
X0261675Y0091610D01*
X0261744Y0091622D01*
X0261813Y0091637D01*
X0261881Y0091656D01*
X0261947Y0091679D01*
X0262012Y0091706D01*
X0262076Y0091736D01*
X0262138Y0091769D01*
X0262198Y0091806D01*
X0262256Y0091846D01*
X0262311Y0091889D01*
X0262365Y0091936D01*
X0262415Y0091985D01*
X0262463Y0092037D01*
X0262508Y0092091D01*
X0262549Y0092148D01*
X0262588Y0092207D01*
X0262623Y0092268D01*
X0262655Y0092331D01*
X0262683Y0092395D01*
X0262708Y0092461D01*
X0262729Y0092528D01*
X0262746Y0092597D01*
X0262760Y0092666D01*
X0262769Y0092735D01*
X0262775Y0092806D01*
X0262777Y0092876D01*
X0262775Y0092946D01*
X0262769Y0093017D01*
X0262760Y0093086D01*
X0262746Y0093155D01*
X0262729Y0093224D01*
X0262708Y0093291D01*
X0262683Y0093357D01*
X0262655Y0093421D01*
X0262623Y0093484D01*
X0262588Y0093545D01*
X0262549Y0093604D01*
X0262508Y0093661D01*
X0262463Y0093715D01*
X0262415Y0093767D01*
X0262365Y0093816D01*
X0262311Y0093863D01*
X0262256Y0093906D01*
X0262198Y0093946D01*
X0262138Y0093983D01*
X0262076Y0094016D01*
X0262012Y0094046D01*
X0261947Y0094073D01*
X0261881Y0094096D01*
X0261813Y0094115D01*
X0261744Y0094130D01*
X0261675Y0094142D01*
X0261605Y0094150D01*
X0261534Y0094154D01*
X0261464Y0094154D01*
X0261393Y0094150D01*
X0261323Y0094142D01*
X0261254Y0094130D01*
X0261185Y0094115D01*
X0261117Y0094096D01*
X0261051Y0094073D01*
X0260986Y0094046D01*
X0260922Y0094016D01*
X0260860Y0093983D01*
X0260800Y0093946D01*
X0260742Y0093906D01*
X0260687Y0093863D01*
X0260633Y0093816D01*
X0260583Y0093767D01*
X0260535Y0093715D01*
X0260490Y0093661D01*
X0260449Y0093604D01*
X0260410Y0093545D01*
X0260375Y0093484D01*
X0260343Y0093421D01*
X0260315Y0093357D01*
X0260290Y0093291D01*
X0260269Y0093224D01*
X0260252Y0093155D01*
X0260238Y0093086D01*
X0260229Y0093017D01*
X0260223Y0092946D01*
X0260221Y0092876D01*
X0316313Y0092876D02*
X0316313Y0096198D01*
X0318869Y0096198D02*
X0318869Y0092876D01*
X0318867Y0092806D01*
X0318861Y0092735D01*
X0318852Y0092666D01*
X0318838Y0092597D01*
X0318821Y0092528D01*
X0318800Y0092461D01*
X0318775Y0092395D01*
X0318747Y0092331D01*
X0318715Y0092268D01*
X0318680Y0092207D01*
X0318641Y0092148D01*
X0318600Y0092091D01*
X0318555Y0092037D01*
X0318507Y0091985D01*
X0318457Y0091936D01*
X0318403Y0091889D01*
X0318348Y0091846D01*
X0318290Y0091806D01*
X0318230Y0091769D01*
X0318168Y0091736D01*
X0318104Y0091706D01*
X0318039Y0091679D01*
X0317973Y0091656D01*
X0317905Y0091637D01*
X0317836Y0091622D01*
X0317767Y0091610D01*
X0317697Y0091602D01*
X0317626Y0091598D01*
X0317556Y0091598D01*
X0317485Y0091602D01*
X0317415Y0091610D01*
X0317346Y0091622D01*
X0317277Y0091637D01*
X0317209Y0091656D01*
X0317143Y0091679D01*
X0317078Y0091706D01*
X0317014Y0091736D01*
X0316952Y0091769D01*
X0316892Y0091806D01*
X0316834Y0091846D01*
X0316779Y0091889D01*
X0316725Y0091936D01*
X0316675Y0091985D01*
X0316627Y0092037D01*
X0316582Y0092091D01*
X0316541Y0092148D01*
X0316502Y0092207D01*
X0316467Y0092268D01*
X0316435Y0092331D01*
X0316407Y0092395D01*
X0316382Y0092461D01*
X0316361Y0092528D01*
X0316344Y0092597D01*
X0316330Y0092666D01*
X0316321Y0092735D01*
X0316315Y0092806D01*
X0316313Y0092876D01*
X0320963Y0091598D02*
X0323519Y0091598D01*
X0322241Y0091598D02*
X0322241Y0096198D01*
X0320963Y0095176D01*
X0328019Y0093898D02*
X0328017Y0093783D01*
X0328012Y0093669D01*
X0328003Y0093555D01*
X0327991Y0093441D01*
X0327976Y0093327D01*
X0327957Y0093214D01*
X0327934Y0093102D01*
X0327909Y0092990D01*
X0327879Y0092879D01*
X0327847Y0092769D01*
X0327811Y0092660D01*
X0327772Y0092552D01*
X0327730Y0092446D01*
X0327684Y0092341D01*
X0327636Y0092237D01*
X0327615Y0092182D01*
X0327591Y0092129D01*
X0327564Y0092077D01*
X0327533Y0092027D01*
X0327500Y0091979D01*
X0327463Y0091933D01*
X0327424Y0091889D01*
X0327382Y0091848D01*
X0327338Y0091810D01*
X0327291Y0091774D01*
X0327242Y0091742D01*
X0327191Y0091712D01*
X0327139Y0091686D01*
X0327085Y0091663D01*
X0327030Y0091643D01*
X0326973Y0091627D01*
X0326916Y0091614D01*
X0326858Y0091605D01*
X0326800Y0091600D01*
X0326741Y0091598D01*
X0326682Y0091600D01*
X0326624Y0091605D01*
X0326566Y0091614D01*
X0326509Y0091627D01*
X0326452Y0091643D01*
X0326397Y0091663D01*
X0326343Y0091686D01*
X0326291Y0091712D01*
X0326240Y0091742D01*
X0326191Y0091774D01*
X0326144Y0091810D01*
X0326100Y0091848D01*
X0326058Y0091889D01*
X0326019Y0091933D01*
X0325982Y0091979D01*
X0325949Y0092027D01*
X0325918Y0092077D01*
X0325891Y0092129D01*
X0325867Y0092182D01*
X0325846Y0092237D01*
X0325719Y0092621D02*
X0327763Y0095176D01*
X0327636Y0095560D02*
X0327615Y0095615D01*
X0327591Y0095668D01*
X0327564Y0095720D01*
X0327533Y0095770D01*
X0327500Y0095818D01*
X0327463Y0095864D01*
X0327424Y0095908D01*
X0327382Y0095949D01*
X0327338Y0095987D01*
X0327291Y0096023D01*
X0327242Y0096055D01*
X0327191Y0096085D01*
X0327139Y0096111D01*
X0327085Y0096134D01*
X0327030Y0096154D01*
X0326973Y0096170D01*
X0326916Y0096183D01*
X0326858Y0096192D01*
X0326800Y0096197D01*
X0326741Y0096199D01*
X0326682Y0096197D01*
X0326624Y0096192D01*
X0326566Y0096183D01*
X0326509Y0096170D01*
X0326452Y0096154D01*
X0326397Y0096134D01*
X0326343Y0096111D01*
X0326291Y0096085D01*
X0326240Y0096055D01*
X0326191Y0096023D01*
X0326144Y0095987D01*
X0326100Y0095949D01*
X0326058Y0095908D01*
X0326019Y0095864D01*
X0325982Y0095818D01*
X0325949Y0095770D01*
X0325918Y0095720D01*
X0325891Y0095668D01*
X0325867Y0095615D01*
X0325846Y0095560D01*
X0327636Y0095559D02*
X0327684Y0095455D01*
X0327730Y0095350D01*
X0327772Y0095244D01*
X0327811Y0095136D01*
X0327847Y0095027D01*
X0327879Y0094917D01*
X0327909Y0094806D01*
X0327934Y0094694D01*
X0327957Y0094582D01*
X0327976Y0094469D01*
X0327991Y0094355D01*
X0328003Y0094241D01*
X0328012Y0094127D01*
X0328017Y0094013D01*
X0328019Y0093898D01*
X0325463Y0093898D02*
X0325465Y0094013D01*
X0325470Y0094127D01*
X0325479Y0094241D01*
X0325491Y0094355D01*
X0325506Y0094469D01*
X0325525Y0094582D01*
X0325548Y0094694D01*
X0325573Y0094806D01*
X0325603Y0094917D01*
X0325635Y0095027D01*
X0325671Y0095136D01*
X0325710Y0095244D01*
X0325752Y0095350D01*
X0325798Y0095455D01*
X0325846Y0095559D01*
X0325463Y0093898D02*
X0325465Y0093783D01*
X0325470Y0093669D01*
X0325479Y0093555D01*
X0325491Y0093441D01*
X0325506Y0093327D01*
X0325525Y0093214D01*
X0325548Y0093102D01*
X0325573Y0092990D01*
X0325603Y0092879D01*
X0325635Y0092769D01*
X0325671Y0092660D01*
X0325710Y0092552D01*
X0325752Y0092446D01*
X0325798Y0092341D01*
X0325846Y0092237D01*
X0379306Y0092876D02*
X0379306Y0096198D01*
X0381861Y0096198D02*
X0381861Y0092876D01*
X0381859Y0092806D01*
X0381853Y0092735D01*
X0381844Y0092666D01*
X0381830Y0092597D01*
X0381813Y0092528D01*
X0381792Y0092461D01*
X0381767Y0092395D01*
X0381739Y0092331D01*
X0381707Y0092268D01*
X0381672Y0092207D01*
X0381633Y0092148D01*
X0381592Y0092091D01*
X0381547Y0092037D01*
X0381499Y0091985D01*
X0381449Y0091936D01*
X0381395Y0091889D01*
X0381340Y0091846D01*
X0381282Y0091806D01*
X0381222Y0091769D01*
X0381160Y0091736D01*
X0381096Y0091706D01*
X0381031Y0091679D01*
X0380965Y0091656D01*
X0380897Y0091637D01*
X0380828Y0091622D01*
X0380759Y0091610D01*
X0380689Y0091602D01*
X0380618Y0091598D01*
X0380548Y0091598D01*
X0380477Y0091602D01*
X0380407Y0091610D01*
X0380338Y0091622D01*
X0380269Y0091637D01*
X0380201Y0091656D01*
X0380135Y0091679D01*
X0380070Y0091706D01*
X0380006Y0091736D01*
X0379944Y0091769D01*
X0379884Y0091806D01*
X0379826Y0091846D01*
X0379771Y0091889D01*
X0379717Y0091936D01*
X0379667Y0091985D01*
X0379619Y0092037D01*
X0379574Y0092091D01*
X0379533Y0092148D01*
X0379494Y0092207D01*
X0379459Y0092268D01*
X0379427Y0092331D01*
X0379399Y0092395D01*
X0379374Y0092461D01*
X0379353Y0092528D01*
X0379336Y0092597D01*
X0379322Y0092666D01*
X0379313Y0092735D01*
X0379307Y0092806D01*
X0379305Y0092876D01*
X0383955Y0091598D02*
X0386511Y0091598D01*
X0385233Y0091598D02*
X0385233Y0096198D01*
X0383955Y0095176D01*
X0388455Y0091598D02*
X0390628Y0094154D01*
X0389861Y0096198D02*
X0389787Y0096196D01*
X0389713Y0096191D01*
X0389639Y0096181D01*
X0389566Y0096168D01*
X0389493Y0096152D01*
X0389422Y0096131D01*
X0389352Y0096107D01*
X0389283Y0096080D01*
X0389215Y0096049D01*
X0389149Y0096015D01*
X0389085Y0095978D01*
X0389023Y0095937D01*
X0388963Y0095893D01*
X0388905Y0095847D01*
X0388849Y0095797D01*
X0388796Y0095745D01*
X0388746Y0095690D01*
X0388699Y0095633D01*
X0388655Y0095573D01*
X0388613Y0095511D01*
X0388575Y0095448D01*
X0388540Y0095382D01*
X0388509Y0095315D01*
X0388481Y0095246D01*
X0388456Y0095176D01*
X0390628Y0094154D02*
X0390675Y0094201D01*
X0390719Y0094251D01*
X0390761Y0094303D01*
X0390800Y0094357D01*
X0390835Y0094413D01*
X0390868Y0094471D01*
X0390898Y0094531D01*
X0390924Y0094592D01*
X0390947Y0094655D01*
X0390966Y0094719D01*
X0390982Y0094783D01*
X0390995Y0094849D01*
X0391004Y0094915D01*
X0391009Y0094981D01*
X0391011Y0095048D01*
X0391009Y0095115D01*
X0391003Y0095182D01*
X0390994Y0095248D01*
X0390980Y0095313D01*
X0390963Y0095378D01*
X0390942Y0095441D01*
X0390917Y0095503D01*
X0390889Y0095564D01*
X0390857Y0095623D01*
X0390822Y0095680D01*
X0390783Y0095735D01*
X0390742Y0095787D01*
X0390697Y0095837D01*
X0390650Y0095884D01*
X0390600Y0095929D01*
X0390548Y0095970D01*
X0390493Y0096009D01*
X0390436Y0096044D01*
X0390377Y0096076D01*
X0390316Y0096104D01*
X0390254Y0096129D01*
X0390191Y0096150D01*
X0390126Y0096167D01*
X0390061Y0096181D01*
X0389995Y0096190D01*
X0389928Y0096196D01*
X0389861Y0096198D01*
X0391011Y0091598D02*
X0388455Y0091598D01*
X0411195Y0009427D02*
X0411195Y0006105D01*
X0411197Y0006035D01*
X0411203Y0005964D01*
X0411212Y0005895D01*
X0411226Y0005826D01*
X0411243Y0005757D01*
X0411264Y0005690D01*
X0411289Y0005624D01*
X0411317Y0005560D01*
X0411349Y0005497D01*
X0411384Y0005436D01*
X0411423Y0005377D01*
X0411464Y0005320D01*
X0411509Y0005266D01*
X0411557Y0005214D01*
X0411607Y0005165D01*
X0411661Y0005118D01*
X0411716Y0005075D01*
X0411774Y0005035D01*
X0411834Y0004998D01*
X0411896Y0004965D01*
X0411960Y0004935D01*
X0412025Y0004908D01*
X0412091Y0004885D01*
X0412159Y0004866D01*
X0412228Y0004851D01*
X0412297Y0004839D01*
X0412367Y0004831D01*
X0412438Y0004827D01*
X0412508Y0004827D01*
X0412579Y0004831D01*
X0412649Y0004839D01*
X0412718Y0004851D01*
X0412787Y0004866D01*
X0412855Y0004885D01*
X0412921Y0004908D01*
X0412986Y0004935D01*
X0413050Y0004965D01*
X0413112Y0004998D01*
X0413172Y0005035D01*
X0413230Y0005075D01*
X0413285Y0005118D01*
X0413339Y0005165D01*
X0413389Y0005214D01*
X0413437Y0005266D01*
X0413482Y0005320D01*
X0413523Y0005377D01*
X0413562Y0005436D01*
X0413597Y0005497D01*
X0413629Y0005560D01*
X0413657Y0005624D01*
X0413682Y0005690D01*
X0413703Y0005757D01*
X0413720Y0005826D01*
X0413734Y0005895D01*
X0413743Y0005964D01*
X0413749Y0006035D01*
X0413751Y0006105D01*
X0413751Y0009427D01*
X0415845Y0008405D02*
X0417123Y0009427D01*
X0417123Y0004827D01*
X0415845Y0004827D02*
X0418401Y0004827D01*
X0420345Y0004827D02*
X0421623Y0004827D01*
X0421693Y0004829D01*
X0421764Y0004835D01*
X0421833Y0004844D01*
X0421902Y0004858D01*
X0421971Y0004875D01*
X0422038Y0004896D01*
X0422104Y0004921D01*
X0422168Y0004949D01*
X0422231Y0004981D01*
X0422292Y0005016D01*
X0422351Y0005055D01*
X0422408Y0005096D01*
X0422462Y0005141D01*
X0422514Y0005189D01*
X0422563Y0005239D01*
X0422610Y0005293D01*
X0422653Y0005348D01*
X0422693Y0005406D01*
X0422730Y0005466D01*
X0422763Y0005528D01*
X0422793Y0005592D01*
X0422820Y0005657D01*
X0422843Y0005723D01*
X0422862Y0005791D01*
X0422877Y0005860D01*
X0422889Y0005929D01*
X0422897Y0005999D01*
X0422901Y0006070D01*
X0422901Y0006140D01*
X0422897Y0006211D01*
X0422889Y0006281D01*
X0422877Y0006350D01*
X0422862Y0006419D01*
X0422843Y0006487D01*
X0422820Y0006553D01*
X0422793Y0006618D01*
X0422763Y0006682D01*
X0422730Y0006744D01*
X0422693Y0006804D01*
X0422653Y0006862D01*
X0422610Y0006917D01*
X0422563Y0006971D01*
X0422514Y0007021D01*
X0422462Y0007069D01*
X0422408Y0007114D01*
X0422351Y0007155D01*
X0422292Y0007194D01*
X0422231Y0007229D01*
X0422168Y0007261D01*
X0422104Y0007289D01*
X0422038Y0007314D01*
X0421971Y0007335D01*
X0421902Y0007352D01*
X0421833Y0007366D01*
X0421764Y0007375D01*
X0421693Y0007381D01*
X0421623Y0007383D01*
X0421879Y0007382D02*
X0420856Y0007382D01*
X0421879Y0007383D02*
X0421942Y0007385D01*
X0422005Y0007391D01*
X0422067Y0007400D01*
X0422128Y0007414D01*
X0422189Y0007431D01*
X0422248Y0007452D01*
X0422306Y0007477D01*
X0422363Y0007505D01*
X0422417Y0007536D01*
X0422469Y0007571D01*
X0422520Y0007609D01*
X0422568Y0007650D01*
X0422613Y0007694D01*
X0422655Y0007740D01*
X0422695Y0007789D01*
X0422731Y0007840D01*
X0422764Y0007894D01*
X0422794Y0007949D01*
X0422820Y0008007D01*
X0422843Y0008065D01*
X0422862Y0008125D01*
X0422877Y0008186D01*
X0422889Y0008248D01*
X0422897Y0008311D01*
X0422901Y0008374D01*
X0422901Y0008436D01*
X0422897Y0008499D01*
X0422889Y0008562D01*
X0422877Y0008624D01*
X0422862Y0008685D01*
X0422843Y0008745D01*
X0422820Y0008803D01*
X0422794Y0008861D01*
X0422764Y0008916D01*
X0422731Y0008970D01*
X0422695Y0009021D01*
X0422655Y0009070D01*
X0422613Y0009116D01*
X0422568Y0009160D01*
X0422520Y0009201D01*
X0422469Y0009239D01*
X0422417Y0009274D01*
X0422363Y0009305D01*
X0422306Y0009333D01*
X0422248Y0009358D01*
X0422189Y0009379D01*
X0422128Y0009396D01*
X0422067Y0009410D01*
X0422005Y0009419D01*
X0421942Y0009425D01*
X0421879Y0009427D01*
X0420345Y0009427D01*
X0359909Y0004827D02*
X0357353Y0004827D01*
X0358631Y0004827D02*
X0358631Y0009427D01*
X0357353Y0008405D01*
X0354131Y0009427D02*
X0354131Y0004827D01*
X0352853Y0004827D02*
X0355409Y0004827D01*
X0350759Y0006105D02*
X0350759Y0009427D01*
X0352853Y0008405D02*
X0354131Y0009427D01*
X0348203Y0009427D02*
X0348203Y0006105D01*
X0348205Y0006035D01*
X0348211Y0005964D01*
X0348220Y0005895D01*
X0348234Y0005826D01*
X0348251Y0005757D01*
X0348272Y0005690D01*
X0348297Y0005624D01*
X0348325Y0005560D01*
X0348357Y0005497D01*
X0348392Y0005436D01*
X0348431Y0005377D01*
X0348472Y0005320D01*
X0348517Y0005266D01*
X0348565Y0005214D01*
X0348615Y0005165D01*
X0348669Y0005118D01*
X0348724Y0005075D01*
X0348782Y0005035D01*
X0348842Y0004998D01*
X0348904Y0004965D01*
X0348968Y0004935D01*
X0349033Y0004908D01*
X0349099Y0004885D01*
X0349167Y0004866D01*
X0349236Y0004851D01*
X0349305Y0004839D01*
X0349375Y0004831D01*
X0349446Y0004827D01*
X0349516Y0004827D01*
X0349587Y0004831D01*
X0349657Y0004839D01*
X0349726Y0004851D01*
X0349795Y0004866D01*
X0349863Y0004885D01*
X0349929Y0004908D01*
X0349994Y0004935D01*
X0350058Y0004965D01*
X0350120Y0004998D01*
X0350180Y0005035D01*
X0350238Y0005075D01*
X0350293Y0005118D01*
X0350347Y0005165D01*
X0350397Y0005214D01*
X0350445Y0005266D01*
X0350490Y0005320D01*
X0350531Y0005377D01*
X0350570Y0005436D01*
X0350605Y0005497D01*
X0350637Y0005560D01*
X0350665Y0005624D01*
X0350690Y0005690D01*
X0350711Y0005757D01*
X0350728Y0005826D01*
X0350742Y0005895D01*
X0350751Y0005964D01*
X0350757Y0006035D01*
X0350759Y0006105D01*
X0294667Y0006871D02*
X0294667Y0008149D01*
X0294667Y0006871D02*
X0293133Y0006871D01*
X0294666Y0006871D02*
X0294664Y0006782D01*
X0294658Y0006693D01*
X0294649Y0006604D01*
X0294635Y0006516D01*
X0294618Y0006429D01*
X0294596Y0006342D01*
X0294571Y0006256D01*
X0294543Y0006172D01*
X0294510Y0006089D01*
X0294474Y0006007D01*
X0294435Y0005927D01*
X0294392Y0005849D01*
X0294346Y0005773D01*
X0294296Y0005699D01*
X0294244Y0005627D01*
X0294188Y0005557D01*
X0294129Y0005490D01*
X0294067Y0005426D01*
X0294003Y0005364D01*
X0293936Y0005305D01*
X0293866Y0005249D01*
X0293794Y0005197D01*
X0293720Y0005147D01*
X0293644Y0005101D01*
X0293566Y0005058D01*
X0293486Y0005019D01*
X0293404Y0004983D01*
X0293321Y0004950D01*
X0293237Y0004922D01*
X0293151Y0004897D01*
X0293064Y0004875D01*
X0292977Y0004858D01*
X0292889Y0004844D01*
X0292800Y0004835D01*
X0292711Y0004829D01*
X0292622Y0004827D01*
X0290017Y0006105D02*
X0290017Y0009427D01*
X0292111Y0008149D02*
X0292111Y0007893D01*
X0292113Y0007831D01*
X0292118Y0007770D01*
X0292128Y0007709D01*
X0292141Y0007648D01*
X0292157Y0007589D01*
X0292177Y0007531D01*
X0292201Y0007474D01*
X0292228Y0007418D01*
X0292258Y0007364D01*
X0292292Y0007312D01*
X0292328Y0007263D01*
X0292368Y0007215D01*
X0292410Y0007170D01*
X0292455Y0007128D01*
X0292503Y0007088D01*
X0292552Y0007052D01*
X0292604Y0007018D01*
X0292658Y0006988D01*
X0292714Y0006961D01*
X0292771Y0006937D01*
X0292829Y0006917D01*
X0292888Y0006901D01*
X0292949Y0006888D01*
X0293010Y0006878D01*
X0293071Y0006873D01*
X0293133Y0006871D01*
X0292111Y0008149D02*
X0292113Y0008219D01*
X0292119Y0008290D01*
X0292128Y0008359D01*
X0292142Y0008428D01*
X0292159Y0008497D01*
X0292180Y0008564D01*
X0292205Y0008630D01*
X0292233Y0008694D01*
X0292265Y0008757D01*
X0292300Y0008818D01*
X0292339Y0008877D01*
X0292380Y0008934D01*
X0292425Y0008988D01*
X0292473Y0009040D01*
X0292523Y0009089D01*
X0292577Y0009136D01*
X0292632Y0009179D01*
X0292690Y0009219D01*
X0292750Y0009256D01*
X0292812Y0009289D01*
X0292876Y0009319D01*
X0292941Y0009346D01*
X0293007Y0009369D01*
X0293075Y0009388D01*
X0293144Y0009403D01*
X0293213Y0009415D01*
X0293283Y0009423D01*
X0293354Y0009427D01*
X0293424Y0009427D01*
X0293495Y0009423D01*
X0293565Y0009415D01*
X0293634Y0009403D01*
X0293703Y0009388D01*
X0293771Y0009369D01*
X0293837Y0009346D01*
X0293902Y0009319D01*
X0293966Y0009289D01*
X0294028Y0009256D01*
X0294088Y0009219D01*
X0294146Y0009179D01*
X0294201Y0009136D01*
X0294255Y0009089D01*
X0294305Y0009040D01*
X0294353Y0008988D01*
X0294398Y0008934D01*
X0294439Y0008877D01*
X0294478Y0008818D01*
X0294513Y0008757D01*
X0294545Y0008694D01*
X0294573Y0008630D01*
X0294598Y0008564D01*
X0294619Y0008497D01*
X0294636Y0008428D01*
X0294650Y0008359D01*
X0294659Y0008290D01*
X0294665Y0008219D01*
X0294667Y0008149D01*
X0290017Y0006105D02*
X0290015Y0006035D01*
X0290009Y0005964D01*
X0290000Y0005895D01*
X0289986Y0005826D01*
X0289969Y0005757D01*
X0289948Y0005690D01*
X0289923Y0005624D01*
X0289895Y0005560D01*
X0289863Y0005497D01*
X0289828Y0005436D01*
X0289789Y0005377D01*
X0289748Y0005320D01*
X0289703Y0005266D01*
X0289655Y0005214D01*
X0289605Y0005165D01*
X0289551Y0005118D01*
X0289496Y0005075D01*
X0289438Y0005035D01*
X0289378Y0004998D01*
X0289316Y0004965D01*
X0289252Y0004935D01*
X0289187Y0004908D01*
X0289121Y0004885D01*
X0289053Y0004866D01*
X0288984Y0004851D01*
X0288915Y0004839D01*
X0288845Y0004831D01*
X0288774Y0004827D01*
X0288704Y0004827D01*
X0288633Y0004831D01*
X0288563Y0004839D01*
X0288494Y0004851D01*
X0288425Y0004866D01*
X0288357Y0004885D01*
X0288291Y0004908D01*
X0288226Y0004935D01*
X0288162Y0004965D01*
X0288100Y0004998D01*
X0288040Y0005035D01*
X0287982Y0005075D01*
X0287927Y0005118D01*
X0287873Y0005165D01*
X0287823Y0005214D01*
X0287775Y0005266D01*
X0287730Y0005320D01*
X0287689Y0005377D01*
X0287650Y0005436D01*
X0287615Y0005497D01*
X0287583Y0005560D01*
X0287555Y0005624D01*
X0287530Y0005690D01*
X0287509Y0005757D01*
X0287492Y0005826D01*
X0287478Y0005895D01*
X0287469Y0005964D01*
X0287463Y0006035D01*
X0287461Y0006105D01*
X0287461Y0009427D01*
X0231674Y0009427D02*
X0230397Y0004827D01*
X0227024Y0006105D02*
X0227024Y0009427D01*
X0229119Y0009427D02*
X0231674Y0009427D01*
X0229119Y0009427D02*
X0229119Y0008916D01*
X0224469Y0009427D02*
X0224469Y0006105D01*
X0224471Y0006035D01*
X0224477Y0005964D01*
X0224486Y0005895D01*
X0224500Y0005826D01*
X0224517Y0005757D01*
X0224538Y0005690D01*
X0224563Y0005624D01*
X0224591Y0005560D01*
X0224623Y0005497D01*
X0224658Y0005436D01*
X0224697Y0005377D01*
X0224738Y0005320D01*
X0224783Y0005266D01*
X0224831Y0005214D01*
X0224881Y0005165D01*
X0224935Y0005118D01*
X0224990Y0005075D01*
X0225048Y0005035D01*
X0225108Y0004998D01*
X0225170Y0004965D01*
X0225234Y0004935D01*
X0225299Y0004908D01*
X0225365Y0004885D01*
X0225433Y0004866D01*
X0225502Y0004851D01*
X0225571Y0004839D01*
X0225641Y0004831D01*
X0225712Y0004827D01*
X0225782Y0004827D01*
X0225853Y0004831D01*
X0225923Y0004839D01*
X0225992Y0004851D01*
X0226061Y0004866D01*
X0226129Y0004885D01*
X0226195Y0004908D01*
X0226260Y0004935D01*
X0226324Y0004965D01*
X0226386Y0004998D01*
X0226446Y0005035D01*
X0226504Y0005075D01*
X0226559Y0005118D01*
X0226613Y0005165D01*
X0226663Y0005214D01*
X0226711Y0005266D01*
X0226756Y0005320D01*
X0226797Y0005377D01*
X0226836Y0005436D01*
X0226871Y0005497D01*
X0226903Y0005560D01*
X0226931Y0005624D01*
X0226956Y0005690D01*
X0226977Y0005757D01*
X0226994Y0005826D01*
X0227008Y0005895D01*
X0227017Y0005964D01*
X0227023Y0006035D01*
X0227025Y0006105D01*
X0168682Y0005849D02*
X0168682Y0006360D01*
X0168680Y0006422D01*
X0168675Y0006483D01*
X0168665Y0006544D01*
X0168652Y0006605D01*
X0168636Y0006664D01*
X0168616Y0006722D01*
X0168592Y0006779D01*
X0168565Y0006835D01*
X0168535Y0006889D01*
X0168501Y0006941D01*
X0168465Y0006990D01*
X0168425Y0007038D01*
X0168383Y0007083D01*
X0168338Y0007125D01*
X0168290Y0007165D01*
X0168241Y0007201D01*
X0168189Y0007235D01*
X0168135Y0007265D01*
X0168079Y0007292D01*
X0168022Y0007316D01*
X0167964Y0007336D01*
X0167905Y0007352D01*
X0167844Y0007365D01*
X0167783Y0007375D01*
X0167722Y0007380D01*
X0167660Y0007382D01*
X0166127Y0007382D01*
X0166127Y0009427D01*
X0168682Y0009427D01*
X0164032Y0009427D02*
X0164032Y0006105D01*
X0164033Y0006105D02*
X0164031Y0006035D01*
X0164025Y0005964D01*
X0164016Y0005895D01*
X0164002Y0005826D01*
X0163985Y0005757D01*
X0163964Y0005690D01*
X0163939Y0005624D01*
X0163911Y0005560D01*
X0163879Y0005497D01*
X0163844Y0005436D01*
X0163805Y0005377D01*
X0163764Y0005320D01*
X0163719Y0005266D01*
X0163671Y0005214D01*
X0163621Y0005165D01*
X0163567Y0005118D01*
X0163512Y0005075D01*
X0163454Y0005035D01*
X0163394Y0004998D01*
X0163332Y0004965D01*
X0163268Y0004935D01*
X0163203Y0004908D01*
X0163137Y0004885D01*
X0163069Y0004866D01*
X0163000Y0004851D01*
X0162931Y0004839D01*
X0162861Y0004831D01*
X0162790Y0004827D01*
X0162720Y0004827D01*
X0162649Y0004831D01*
X0162579Y0004839D01*
X0162510Y0004851D01*
X0162441Y0004866D01*
X0162373Y0004885D01*
X0162307Y0004908D01*
X0162242Y0004935D01*
X0162178Y0004965D01*
X0162116Y0004998D01*
X0162056Y0005035D01*
X0161998Y0005075D01*
X0161943Y0005118D01*
X0161889Y0005165D01*
X0161839Y0005214D01*
X0161791Y0005266D01*
X0161746Y0005320D01*
X0161705Y0005377D01*
X0161666Y0005436D01*
X0161631Y0005497D01*
X0161599Y0005560D01*
X0161571Y0005624D01*
X0161546Y0005690D01*
X0161525Y0005757D01*
X0161508Y0005826D01*
X0161494Y0005895D01*
X0161485Y0005964D01*
X0161479Y0006035D01*
X0161477Y0006105D01*
X0161477Y0009427D01*
X0167660Y0004827D02*
X0167722Y0004829D01*
X0167783Y0004834D01*
X0167844Y0004844D01*
X0167905Y0004857D01*
X0167964Y0004873D01*
X0168022Y0004893D01*
X0168079Y0004917D01*
X0168135Y0004944D01*
X0168189Y0004974D01*
X0168241Y0005008D01*
X0168290Y0005044D01*
X0168338Y0005084D01*
X0168383Y0005126D01*
X0168425Y0005171D01*
X0168465Y0005219D01*
X0168501Y0005268D01*
X0168535Y0005320D01*
X0168565Y0005374D01*
X0168592Y0005430D01*
X0168616Y0005487D01*
X0168636Y0005545D01*
X0168652Y0005604D01*
X0168665Y0005665D01*
X0168675Y0005726D01*
X0168680Y0005787D01*
X0168682Y0005849D01*
X0167660Y0004827D02*
X0166127Y0004827D01*
X0104668Y0007382D02*
X0103646Y0007382D01*
X0104668Y0007383D02*
X0104731Y0007385D01*
X0104794Y0007391D01*
X0104856Y0007400D01*
X0104917Y0007414D01*
X0104978Y0007431D01*
X0105037Y0007452D01*
X0105095Y0007477D01*
X0105152Y0007505D01*
X0105206Y0007536D01*
X0105258Y0007571D01*
X0105309Y0007609D01*
X0105357Y0007650D01*
X0105402Y0007694D01*
X0105444Y0007740D01*
X0105484Y0007789D01*
X0105520Y0007840D01*
X0105553Y0007894D01*
X0105583Y0007949D01*
X0105609Y0008007D01*
X0105632Y0008065D01*
X0105651Y0008125D01*
X0105666Y0008186D01*
X0105678Y0008248D01*
X0105686Y0008311D01*
X0105690Y0008374D01*
X0105690Y0008436D01*
X0105686Y0008499D01*
X0105678Y0008562D01*
X0105666Y0008624D01*
X0105651Y0008685D01*
X0105632Y0008745D01*
X0105609Y0008803D01*
X0105583Y0008861D01*
X0105553Y0008916D01*
X0105520Y0008970D01*
X0105484Y0009021D01*
X0105444Y0009070D01*
X0105402Y0009116D01*
X0105357Y0009160D01*
X0105309Y0009201D01*
X0105258Y0009239D01*
X0105206Y0009274D01*
X0105152Y0009305D01*
X0105095Y0009333D01*
X0105037Y0009358D01*
X0104978Y0009379D01*
X0104917Y0009396D01*
X0104856Y0009410D01*
X0104794Y0009419D01*
X0104731Y0009425D01*
X0104668Y0009427D01*
X0103135Y0009427D01*
X0101040Y0009427D02*
X0101040Y0006105D01*
X0101038Y0006035D01*
X0101032Y0005964D01*
X0101023Y0005895D01*
X0101009Y0005826D01*
X0100992Y0005757D01*
X0100971Y0005690D01*
X0100946Y0005624D01*
X0100918Y0005560D01*
X0100886Y0005497D01*
X0100851Y0005436D01*
X0100812Y0005377D01*
X0100771Y0005320D01*
X0100726Y0005266D01*
X0100678Y0005214D01*
X0100628Y0005165D01*
X0100574Y0005118D01*
X0100519Y0005075D01*
X0100461Y0005035D01*
X0100401Y0004998D01*
X0100339Y0004965D01*
X0100275Y0004935D01*
X0100210Y0004908D01*
X0100144Y0004885D01*
X0100076Y0004866D01*
X0100007Y0004851D01*
X0099938Y0004839D01*
X0099868Y0004831D01*
X0099797Y0004827D01*
X0099727Y0004827D01*
X0099656Y0004831D01*
X0099586Y0004839D01*
X0099517Y0004851D01*
X0099448Y0004866D01*
X0099380Y0004885D01*
X0099314Y0004908D01*
X0099249Y0004935D01*
X0099185Y0004965D01*
X0099123Y0004998D01*
X0099063Y0005035D01*
X0099005Y0005075D01*
X0098950Y0005118D01*
X0098896Y0005165D01*
X0098846Y0005214D01*
X0098798Y0005266D01*
X0098753Y0005320D01*
X0098712Y0005377D01*
X0098673Y0005436D01*
X0098638Y0005497D01*
X0098606Y0005560D01*
X0098578Y0005624D01*
X0098553Y0005690D01*
X0098532Y0005757D01*
X0098515Y0005826D01*
X0098501Y0005895D01*
X0098492Y0005964D01*
X0098486Y0006035D01*
X0098484Y0006105D01*
X0098485Y0006105D02*
X0098485Y0009427D01*
X0104412Y0007383D02*
X0104482Y0007381D01*
X0104553Y0007375D01*
X0104622Y0007366D01*
X0104691Y0007352D01*
X0104760Y0007335D01*
X0104827Y0007314D01*
X0104893Y0007289D01*
X0104957Y0007261D01*
X0105020Y0007229D01*
X0105081Y0007194D01*
X0105140Y0007155D01*
X0105197Y0007114D01*
X0105251Y0007069D01*
X0105303Y0007021D01*
X0105352Y0006971D01*
X0105399Y0006917D01*
X0105442Y0006862D01*
X0105482Y0006804D01*
X0105519Y0006744D01*
X0105552Y0006682D01*
X0105582Y0006618D01*
X0105609Y0006553D01*
X0105632Y0006487D01*
X0105651Y0006419D01*
X0105666Y0006350D01*
X0105678Y0006281D01*
X0105686Y0006211D01*
X0105690Y0006140D01*
X0105690Y0006070D01*
X0105686Y0005999D01*
X0105678Y0005929D01*
X0105666Y0005860D01*
X0105651Y0005791D01*
X0105632Y0005723D01*
X0105609Y0005657D01*
X0105582Y0005592D01*
X0105552Y0005528D01*
X0105519Y0005466D01*
X0105482Y0005406D01*
X0105442Y0005348D01*
X0105399Y0005293D01*
X0105352Y0005239D01*
X0105303Y0005189D01*
X0105251Y0005141D01*
X0105197Y0005096D01*
X0105140Y0005055D01*
X0105081Y0005016D01*
X0105020Y0004981D01*
X0104957Y0004949D01*
X0104893Y0004921D01*
X0104827Y0004896D01*
X0104760Y0004875D01*
X0104691Y0004858D01*
X0104622Y0004844D01*
X0104553Y0004835D01*
X0104482Y0004829D01*
X0104412Y0004827D01*
X0103135Y0004827D01*
D13*
X0216252Y0119891D02*
X0216254Y0119930D01*
X0216260Y0119969D01*
X0216270Y0120007D01*
X0216283Y0120044D01*
X0216300Y0120079D01*
X0216320Y0120113D01*
X0216344Y0120144D01*
X0216371Y0120173D01*
X0216400Y0120199D01*
X0216432Y0120222D01*
X0216466Y0120242D01*
X0216502Y0120258D01*
X0216539Y0120270D01*
X0216578Y0120279D01*
X0216617Y0120284D01*
X0216656Y0120285D01*
X0216695Y0120282D01*
X0216734Y0120275D01*
X0216771Y0120264D01*
X0216808Y0120250D01*
X0216843Y0120232D01*
X0216876Y0120211D01*
X0216907Y0120186D01*
X0216935Y0120159D01*
X0216960Y0120129D01*
X0216982Y0120096D01*
X0217001Y0120062D01*
X0217016Y0120026D01*
X0217028Y0119988D01*
X0217036Y0119950D01*
X0217040Y0119911D01*
X0217040Y0119871D01*
X0217036Y0119832D01*
X0217028Y0119794D01*
X0217016Y0119756D01*
X0217001Y0119720D01*
X0216982Y0119686D01*
X0216960Y0119653D01*
X0216935Y0119623D01*
X0216907Y0119596D01*
X0216876Y0119571D01*
X0216843Y0119550D01*
X0216808Y0119532D01*
X0216771Y0119518D01*
X0216734Y0119507D01*
X0216695Y0119500D01*
X0216656Y0119497D01*
X0216617Y0119498D01*
X0216578Y0119503D01*
X0216539Y0119512D01*
X0216502Y0119524D01*
X0216466Y0119540D01*
X0216432Y0119560D01*
X0216400Y0119583D01*
X0216371Y0119609D01*
X0216344Y0119638D01*
X0216320Y0119669D01*
X0216300Y0119703D01*
X0216283Y0119738D01*
X0216270Y0119775D01*
X0216260Y0119813D01*
X0216254Y0119852D01*
X0216252Y0119891D01*
X0116319Y0127973D02*
X0116321Y0128012D01*
X0116327Y0128051D01*
X0116337Y0128089D01*
X0116350Y0128126D01*
X0116367Y0128161D01*
X0116387Y0128195D01*
X0116411Y0128226D01*
X0116438Y0128255D01*
X0116467Y0128281D01*
X0116499Y0128304D01*
X0116533Y0128324D01*
X0116569Y0128340D01*
X0116606Y0128352D01*
X0116645Y0128361D01*
X0116684Y0128366D01*
X0116723Y0128367D01*
X0116762Y0128364D01*
X0116801Y0128357D01*
X0116838Y0128346D01*
X0116875Y0128332D01*
X0116910Y0128314D01*
X0116943Y0128293D01*
X0116974Y0128268D01*
X0117002Y0128241D01*
X0117027Y0128211D01*
X0117049Y0128178D01*
X0117068Y0128144D01*
X0117083Y0128108D01*
X0117095Y0128070D01*
X0117103Y0128032D01*
X0117107Y0127993D01*
X0117107Y0127953D01*
X0117103Y0127914D01*
X0117095Y0127876D01*
X0117083Y0127838D01*
X0117068Y0127802D01*
X0117049Y0127768D01*
X0117027Y0127735D01*
X0117002Y0127705D01*
X0116974Y0127678D01*
X0116943Y0127653D01*
X0116910Y0127632D01*
X0116875Y0127614D01*
X0116838Y0127600D01*
X0116801Y0127589D01*
X0116762Y0127582D01*
X0116723Y0127579D01*
X0116684Y0127580D01*
X0116645Y0127585D01*
X0116606Y0127594D01*
X0116569Y0127606D01*
X0116533Y0127622D01*
X0116499Y0127642D01*
X0116467Y0127665D01*
X0116438Y0127691D01*
X0116411Y0127720D01*
X0116387Y0127751D01*
X0116367Y0127785D01*
X0116350Y0127820D01*
X0116337Y0127857D01*
X0116327Y0127895D01*
X0116321Y0127934D01*
X0116319Y0127973D01*
D14*
X0127560Y0128288D02*
X0148426Y0128288D01*
X0180906Y0131051D02*
X0189568Y0131051D01*
X0189568Y0122809D02*
X0180906Y0122809D01*
X0180906Y0111051D02*
X0189568Y0111051D01*
X0189568Y0102809D02*
X0180906Y0102809D01*
X0148426Y0095729D02*
X0127560Y0095729D01*
X0057349Y0096845D02*
X0054849Y0096845D01*
X0056099Y0096845D02*
X0056099Y0101345D01*
X0054849Y0100345D01*
X0051824Y0101345D02*
X0051893Y0101343D01*
X0051962Y0101337D01*
X0052030Y0101328D01*
X0052097Y0101315D01*
X0052164Y0101298D01*
X0052230Y0101277D01*
X0052294Y0101253D01*
X0052357Y0101225D01*
X0052419Y0101194D01*
X0052479Y0101160D01*
X0052536Y0101122D01*
X0052592Y0101081D01*
X0052645Y0101038D01*
X0052696Y0100991D01*
X0052744Y0100942D01*
X0052789Y0100890D01*
X0052831Y0100835D01*
X0052870Y0100779D01*
X0052907Y0100720D01*
X0052939Y0100659D01*
X0052969Y0100597D01*
X0052995Y0100533D01*
X0053017Y0100468D01*
X0053036Y0100402D01*
X0053051Y0100335D01*
X0053062Y0100267D01*
X0053070Y0100198D01*
X0053074Y0100129D01*
X0053074Y0100061D01*
X0053070Y0099992D01*
X0053062Y0099923D01*
X0053051Y0099855D01*
X0053036Y0099788D01*
X0053017Y0099722D01*
X0052995Y0099657D01*
X0052969Y0099593D01*
X0052939Y0099531D01*
X0052907Y0099470D01*
X0052870Y0099411D01*
X0052831Y0099355D01*
X0052789Y0099300D01*
X0052744Y0099248D01*
X0052696Y0099199D01*
X0052645Y0099152D01*
X0052592Y0099109D01*
X0052536Y0099068D01*
X0052479Y0099030D01*
X0052419Y0098996D01*
X0052357Y0098965D01*
X0052294Y0098937D01*
X0052230Y0098913D01*
X0052164Y0098892D01*
X0052097Y0098875D01*
X0052030Y0098862D01*
X0051962Y0098853D01*
X0051893Y0098847D01*
X0051824Y0098845D01*
X0050574Y0098845D01*
X0050574Y0096845D02*
X0050574Y0101345D01*
X0051824Y0101345D01*
X0048220Y0101345D02*
X0048220Y0097845D01*
X0048218Y0097785D01*
X0048213Y0097724D01*
X0048204Y0097665D01*
X0048191Y0097606D01*
X0048175Y0097547D01*
X0048155Y0097490D01*
X0048132Y0097435D01*
X0048105Y0097380D01*
X0048076Y0097328D01*
X0048043Y0097277D01*
X0048007Y0097228D01*
X0047969Y0097182D01*
X0047927Y0097138D01*
X0047883Y0097096D01*
X0047837Y0097058D01*
X0047788Y0097022D01*
X0047737Y0096989D01*
X0047685Y0096960D01*
X0047630Y0096933D01*
X0047575Y0096910D01*
X0047518Y0096890D01*
X0047459Y0096874D01*
X0047400Y0096861D01*
X0047341Y0096852D01*
X0047280Y0096847D01*
X0047220Y0096845D01*
X0046720Y0096845D01*
X0241813Y0102405D02*
X0242383Y0102405D01*
X0242449Y0102407D01*
X0242515Y0102413D01*
X0242581Y0102422D01*
X0242646Y0102436D01*
X0242710Y0102453D01*
X0242773Y0102474D01*
X0242834Y0102498D01*
X0242894Y0102526D01*
X0242953Y0102558D01*
X0243009Y0102592D01*
X0243063Y0102630D01*
X0243115Y0102671D01*
X0243165Y0102716D01*
X0243211Y0102762D01*
X0243256Y0102812D01*
X0243297Y0102864D01*
X0243335Y0102918D01*
X0243369Y0102975D01*
X0243401Y0103033D01*
X0243429Y0103093D01*
X0243453Y0103154D01*
X0243474Y0103217D01*
X0243491Y0103281D01*
X0243505Y0103346D01*
X0243514Y0103412D01*
X0243520Y0103478D01*
X0243522Y0103544D01*
X0243522Y0107530D01*
X0245884Y0106391D02*
X0247308Y0107530D01*
X0247308Y0102405D01*
X0245884Y0102405D02*
X0248732Y0102405D01*
X0243820Y0119646D02*
X0241359Y0119646D01*
X0241359Y0122107D01*
D15*
X0050099Y0124095D02*
X0050099Y0114095D01*
X0040099Y0114095D01*
X0040099Y0124095D01*
X0040099Y0134095D01*
X0050099Y0134095D01*
X0050099Y0124095D01*
X0040099Y0124095D01*
X0040099Y0114095D02*
X0040099Y0104095D01*
X0050099Y0104095D01*
X0050099Y0114095D01*
D16*
X0037599Y0109095D02*
X0015099Y0109095D01*
X0015099Y0119095D02*
X0037599Y0119095D01*
X0037599Y0129095D02*
X0015099Y0129095D01*
D17*
X0039099Y0129095D03*
X0039099Y0119095D03*
X0039099Y0109095D03*
D18*
X0052099Y0109095D03*
X0052099Y0119095D03*
X0052099Y0129095D03*
M02*
